<mxfile host="app.diagrams.net" modified="2021-02-20T22:00:39.138Z" agent="5.0 (Windows NT 10.0; Win64; x64) AppleWebKit/537.36 (KHTML, like Gecko) Chrome/88.0.4324.182 Safari/537.36" etag="cYvObcvP2wfAGTquvGaz" version="13.10.4" type="github">
  <diagram id="em3qmcFdLOzlaKYD21uD" name="Page-1">
    <mxGraphModel dx="2249" dy="766" grid="1" gridSize="10" guides="1" tooltips="1" connect="1" arrows="1" fold="1" page="1" pageScale="1" pageWidth="827" pageHeight="1169" math="0" shadow="0">
      <root>
        <mxCell id="0" />
        <mxCell id="1" parent="0" />
        <mxCell id="6jNMMg2J0Lk2fkZcnQN5-1" value="Marvel Comics API" style="ellipse;shape=cloud;whiteSpace=wrap;html=1;" vertex="1" parent="1">
          <mxGeometry x="340" y="50" width="120" height="80" as="geometry" />
        </mxCell>
        <mxCell id="6jNMMg2J0Lk2fkZcnQN5-9" style="edgeStyle=orthogonalEdgeStyle;rounded=0;orthogonalLoop=1;jettySize=auto;html=1;exitX=0.5;exitY=0;exitDx=0;exitDy=0;" edge="1" parent="1" source="6jNMMg2J0Lk2fkZcnQN5-2" target="6jNMMg2J0Lk2fkZcnQN5-1">
          <mxGeometry relative="1" as="geometry" />
        </mxCell>
        <mxCell id="6jNMMg2J0Lk2fkZcnQN5-2" value="Marvel Comic Queue" style="rounded=0;whiteSpace=wrap;html=1;" vertex="1" parent="1">
          <mxGeometry x="50" y="270" width="120" height="60" as="geometry" />
        </mxCell>
        <mxCell id="6jNMMg2J0Lk2fkZcnQN5-3" value="Comic Data" style="shape=cylinder3;whiteSpace=wrap;html=1;boundedLbl=1;backgroundOutline=1;size=15;" vertex="1" parent="1">
          <mxGeometry x="70" y="505" width="60" height="80" as="geometry" />
        </mxCell>
        <mxCell id="6jNMMg2J0Lk2fkZcnQN5-4" value="" style="endArrow=none;dashed=1;html=1;dashPattern=1 3;strokeWidth=2;" edge="1" parent="1">
          <mxGeometry width="50" height="50" relative="1" as="geometry">
            <mxPoint y="180" as="sourcePoint" />
            <mxPoint x="820" y="180" as="targetPoint" />
          </mxGeometry>
        </mxCell>
        <mxCell id="6jNMMg2J0Lk2fkZcnQN5-7" value="Internal Systems" style="text;html=1;strokeColor=none;fillColor=none;align=center;verticalAlign=middle;whiteSpace=wrap;rounded=0;" vertex="1" parent="1">
          <mxGeometry x="130" y="200" width="270" height="20" as="geometry" />
        </mxCell>
        <mxCell id="6jNMMg2J0Lk2fkZcnQN5-8" value="External Systems" style="text;html=1;strokeColor=none;fillColor=none;align=center;verticalAlign=middle;whiteSpace=wrap;rounded=0;" vertex="1" parent="1">
          <mxGeometry x="140" y="10" width="270" height="20" as="geometry" />
        </mxCell>
        <mxCell id="6jNMMg2J0Lk2fkZcnQN5-10" value="Comic Application" style="rounded=0;whiteSpace=wrap;html=1;" vertex="1" parent="1">
          <mxGeometry x="60" y="400" width="120" height="60" as="geometry" />
        </mxCell>
      </root>
    </mxGraphModel>
  </diagram>
</mxfile>
